<svg height="496pt" viewBox="0 0 496 496" width="496pt" xmlns="http://www.w3.org/2000/svg"><path d="m120 208h256v240h-256zm0 0" fill="#efedee"/><path d="m120 144h256v64h-256zm0 0" fill="#599072"/><path d="m8 248c0 132.550781 107.449219 240 240 240s240-107.449219 240-240-107.449219-240-240-240c-51.976562 0-100.097656 16.527344-139.390625 44.609375l-28.609375-28.609375v88h88l-24.863281-24.863281c30.152343-19.6875 66.167969-31.136719 104.863281-31.136719 106.039062 0 192 85.960938 192 192s-85.960938 192-192 192-192-85.960938-192-192" fill="#f8cf6a"/><path d="m247.214844 487.976562v-48c-105.671875-.425781-191.214844-86.199218-191.214844-191.976562h-48c0 132.289062 107.03125 239.550781 239.214844 239.976562zm0 0" fill="#cb9e78"/><path d="m248 440v48c66.273438 0 126.273438-26.863281 169.703125-70.296875l-33.941406-33.941406c-34.746094 34.75-82.746094 56.238281-135.761719 56.238281zm0 0" fill="#699ce6"/><path d="m440 248c0 53.015625-21.488281 101.015625-56.230469 135.769531l33.941407 33.941407c43.425781-43.4375 70.289062-103.4375 70.289062-169.710938zm0 0" fill="#7a6ac3"/><path d="m383.769531 112.230469c34.742188 34.753906 56.230469 82.753906 56.230469 135.769531h48c0-66.273438-26.863281-126.273438-70.296875-169.703125zm0 0" fill="#dc6068"/><path d="m383.769531 112.230469 33.941407-33.941407c-43.4375-43.425781-103.4375-70.289062-169.710938-70.289062v48c53.015625 0 101.015625 21.488281 135.769531 56.230469zm0 0" fill="#599072"/><path d="m248 496c-136.742188 0-248-111.246094-248-248h16c0 127.921875 104.070312 232 232 232s232-104.078125 232-232c0-127.929688-104.070312-232-232-232-48.679688 0-95.273438 14.910156-134.742188 43.113281-3.1875 2.269531-7.554687 1.917969-10.3125-.847656l-14.945312-14.953125v60.6875h60.6875l-11.207031-11.207031c-1.703125-1.703125-2.550781-4.089844-2.304688-6.480469.25-2.402344 1.566407-4.550781 3.585938-5.871094 32.496093-21.226562 70.261719-32.441406 109.238281-32.441406 110.28125 0 200 89.71875 200 200s-89.71875 200-200 200-200-89.71875-200-200h16c0 101.464844 82.542969 184 184 184s184-82.535156 184-184c0-101.457031-82.542969-184-184-184-32.527344 0-64.144531 8.488281-92.046875 24.640625l17.703125 17.703125c2.289062 2.289062 2.976562 5.726562 1.734375 8.71875-1.238281 2.984375-4.160156 4.9375-7.390625 4.9375h-88c-4.414062 0-8-3.585938-8-8v-88c0-3.230469 1.953125-6.152344 4.9375-7.390625 2.992188-1.25 6.429688-.554687 8.71875 1.734375l23.878906 23.878906c40.976563-27.648437 88.703125-42.222656 138.464844-42.222656 136.742188 0 248 111.257812 248 248 0 136.753906-111.257812 248-248 248zm0 0"/><path d="m240 8h16v48h-16zm0 0"/><path d="m440 240h48v16h-48zm0 0"/><path d="m240 440h16v48h-16zm0 0"/><path d="m378.339844 389.660156 11.3125-11.3125 32 32-11.3125 11.3125zm0 0"/><path d="m378.34375 106.34375 32-32 11.3125 11.3125-32 32zm0 0"/><path d="m384 392h-16v-240h-240v240h-16v-248c0-4.414062 3.585938-8 8-8h256c4.414062 0 8 3.585938 8 8zm0 0"/><path d="m144 168h16v16h-16zm0 0"/><path d="m176 168h16v16h-16zm0 0"/><path d="m208 168h16v16h-16zm0 0"/><path d="m120 200h256v16h-256zm0 0"/><path d="m144 232h112v16h-112zm0 0"/><path d="m144 264h112v16h-112zm0 0"/><path d="m144 296h208v16h-208zm0 0"/><path d="m144 328h208v16h-208zm0 0"/><path d="m144 360h208v16h-208zm0 0"/></svg>