<?xml version="1.0" encoding="UTF-8" standalone="no"?>
<svg
   xmlns:dc="http://purl.org/dc/elements/1.1/"
   xmlns:cc="http://creativecommons.org/ns#"
   xmlns:rdf="http://www.w3.org/1999/02/22-rdf-syntax-ns#"
   xmlns:svg="http://www.w3.org/2000/svg"
   xmlns="http://www.w3.org/2000/svg"
   xmlns:sodipodi="http://sodipodi.sourceforge.net/DTD/sodipodi-0.dtd"
   xmlns:inkscape="http://www.inkscape.org/namespaces/inkscape"
   id="_x33_0"
   enable-background="new 0 0 64 64"
   height="512"
   viewBox="0 0 64 64"
   width="512"
   version="1.1"
   sodipodi:docname="healthy.svg"
   inkscape:version="0.92.4 (5da689c313, 2019-01-14)">
  <metadata
     id="metadata63">
    <rdf:RDF>
      <cc:Work
         rdf:about="">
        <dc:format>image/svg+xml</dc:format>
        <dc:type
           rdf:resource="http://purl.org/dc/dcmitype/StillImage" />
      </cc:Work>
    </rdf:RDF>
  </metadata>
  <defs
     id="defs61" />
  <sodipodi:namedview
     pagecolor="#ffffff"
     bordercolor="#666666"
     borderopacity="1"
     objecttolerance="10"
     gridtolerance="10"
     guidetolerance="10"
     inkscape:pageopacity="0"
     inkscape:pageshadow="2"
     inkscape:window-width="899"
     inkscape:window-height="611"
     id="namedview59"
     showgrid="false"
     inkscape:zoom="0.32593203"
     inkscape:cx="451.00405"
     inkscape:cy="50.997473"
     inkscape:window-x="185"
     inkscape:window-y="52"
     inkscape:window-maximized="0"
     inkscape:current-layer="_x33_0" />
  <g
     id="g1048">
    <g
       id="g4">
      <path
         style="fill:#fcd770"
         inkscape:connector-curvature="0"
         id="path2"
         d="M 32,59 C 32,58.17 31.66,57.42 31.12,56.88 30.58,56.34 29.83,56 29,56 L 28.8,55.61 C 28.31,54.62 27.3,54 26.2,54 c -0.77,0 -1.51,0.31 -2.05,0.85 L 23,56 14.95,54.54 C 13.64,54.3 12.33,54.14 11,54.07 V 54.06 50.24 C 11,48.77 10.66,47.32 10,46 10.96,45.04 11.71,43.91 12.22,42.68 12.73,41.44 13,40.12 13,38.76 13,37.59 12.88,36.42 12.66,35.28 L 12,32 h 6 v 1 c 0,1.94 0.78,3.68 2.05,4.95 1.27,1.27 3.01,2.05 4.95,2.05 3.87,0 7,-3.13 7,-7 v -1 h 6 v 6.96 c -0.4,0.22 -0.79,0.47 -1.15,0.76 -0.9,0.72 -1.61,1.62 -2.1,2.64 C 34.26,43.37 34,44.5 34,45.65 v 0.02 c 0,2.12 0.88,4.15 2.44,5.6 L 38,52.71 V 52.72 62 h -9 c 1.66,0 3,-1.34 3,-3 z" />
    </g>
    <g
       style="fill:#ad6a6a;fill-opacity:1"
       id="g8">
      <path
         style="fill:#ad6a6a;fill-opacity:1"
         inkscape:connector-curvature="0"
         id="path6"
         d="m 22.43,10.23 -1.29,0.51 C 19.68,11.32 18.61,12.54 18.2,14 H 17 c -0.9,0 -1.7,0.39 -2.24,1.02 l -0.01,-0.01 -0.02,-0.1 C 14.24,12.98 14,10.99 14,9 14,8.17 14.34,7.42 14.88,6.88 15.42,6.34 16.17,6 17,6 18.23,3.55 20.73,2 23.47,2 h 4.3 c 2.27,0 4.33,0.92 5.82,2.41 1.49,1.49 2.41,3.55 2.41,5.82 0,0.51 -0.05,1.02 -0.14,1.52 l -0.61,3.26 -0.01,0.01 C 34.7,14.39 33.9,14 33,14 h -1 -4 c -2.52,0 -4.69,-1.56 -5.57,-3.77 z" />
    </g>
    <g
       id="g12">
      <path
         style="fill:#ff826e"
         inkscape:connector-curvature="0"
         id="path10"
         d="m 62,45.65 v 0.02 c 0,2.12 -0.88,4.15 -2.44,5.6 L 48,62 38,52.72 V 52.71 L 36.44,51.27 C 34.88,49.82 34,47.79 34,45.67 v -0.02 c 0,-1.15 0.26,-2.28 0.75,-3.29 0.49,-1.02 1.2,-1.92 2.1,-2.64 0.36,-0.29 0.75,-0.54 1.15,-0.76 1.15,-0.63 2.43,-0.96 3.75,-0.96 2.08,0 4.08,0.83 5.55,2.3 L 48,41 48.7,40.3 c 1.47,-1.47 3.47,-2.3 5.55,-2.3 1.16,0 2.29,0.26 3.33,0.75 0.56,0.26 1.08,0.58 1.57,0.97 1.8,1.44 2.85,3.62 2.85,5.93 z" />
    </g>
    <g
       id="g16">
      <path
         style="fill:#e6e9ed"
         inkscape:connector-curvature="0"
         id="path14"
         d="m 58,46 -10,10 -6,-6 3,-3 3,3 7,-7 z" />
    </g>
    <g
       id="g20">
      <path
         style="fill:#f0d0b4"
         inkscape:connector-curvature="0"
         id="path18"
         d="m 62,14 v 17.58 c 0,3.05 -1.73,5.82 -4.42,7.16 v 0.01 C 56.54,38.26 55.41,38 54.25,38 52.17,38 50.17,38.83 48.7,40.3 L 48,41 47.3,40.3 C 45.83,38.83 43.83,38 41.75,38 40.43,38 39.15,38.33 38,38.96 V 32 h 0.76 c 1.36,0 2.68,0.27 3.92,0.78 1.23,0.51 2.36,1.26 3.32,2.22 1.32,-0.66 2.77,-1 4.24,-1 H 54 c 0,-3.32 0.36,-6.64 1.08,-9.88 L 56,20 C 56,20 55.4,19.4 54.85,18.85 54.31,18.31 54,17.57 54,16.79 v -0.04 c 0,-1.07 0.61,-2.05 1.57,-2.53 L 56,14 c 0,-0.83 0.34,-1.58 0.88,-2.12 C 57.42,11.34 58.17,11 59,11 c 1.66,0 3,1.34 3,3 z" />
    </g>
    <g
       id="g24">
      <path
         style="fill:#f0d0b4"
         inkscape:connector-curvature="0"
         id="path22"
         d="m 11,54.07 c 1.33,0.07 2.64,0.23 3.95,0.47 L 23,56 24.15,54.85 C 24.69,54.31 25.43,54 26.2,54 c 1.1,0 2.11,0.62 2.6,1.61 L 29,56 c 0.83,0 1.58,0.34 2.12,0.88 0.54,0.54 0.88,1.29 0.88,2.12 0,1.66 -1.34,3 -3,3 H 11.42 C 8.15,62 5.2,60.01 3.99,56.97 3.6,56 3.22,55.04 2.89,54.22 2.3,52.75 2,51.19 2,49.59 v -0.07 c 0,-2.04 0.54,-4.04 1.55,-5.8 L 2.94,42.64 C 2.32,41.57 2,40.35 2,39.11 2,35.18 5.18,32 9.11,32 H 12 l 0.66,3.28 c 0.22,1.14 0.34,2.31 0.34,3.48 0,1.36 -0.27,2.68 -0.78,3.92 -0.51,1.23 -1.26,2.36 -2.22,3.32 0.66,1.32 1,2.77 1,4.24 v 3.82 z" />
    </g>
    <g
       id="g28">
      <path
         style="fill:#f0d0b4"
         inkscape:connector-curvature="0"
         id="path26"
         d="m 17,14 h 1.2 C 18.07,14.44 18,14.91 18,15.39 V 20 H 17 C 16.17,20 15.42,19.66 14.88,19.12 14.34,18.58 14,17.83 14,17 14,16.24 14.29,15.55 14.76,15.02 15.3,14.39 16.1,14 17,14 Z" />
    </g>
    <g
       id="g32">
      <path
         style="fill:#f0d0b4"
         inkscape:connector-curvature="0"
         id="path30"
         d="m 33,14 c 0.9,0 1.7,0.39 2.24,1.02 0.47,0.53 0.76,1.22 0.76,1.98 0,0.83 -0.34,1.58 -0.88,2.12 C 34.58,19.66 33.83,20 33,20 h -1 v -6 z" />
    </g>
    <g
       id="g36">
      <path
         style="fill:#f0d0b4"
         inkscape:connector-curvature="0"
         id="path34"
         d="m 32,32 v 1 c 0,3.87 -3.13,7 -7,7 -1.94,0 -3.68,-0.78 -4.95,-2.05 C 18.78,36.68 18,34.94 18,33 v -1 c 1.93,-1.29 3.31,-3.25 3.87,-5.5 l 0.06,-0.21 C 22.85,26.75 23.89,27 25,27 c 1.11,0 2.15,-0.25 3.07,-0.71 l 0.06,0.21 c 0.56,2.25 1.94,4.21 3.87,5.5 z" />
    </g>
    <g
       id="g40">
      <path
         style="fill:#f0d0b4"
         inkscape:connector-curvature="0"
         id="path38"
         d="m 18,20 v -4.61 c 0,-0.48 0.07,-0.95 0.2,-1.39 0.41,-1.46 1.48,-2.68 2.94,-3.26 l 1.29,-0.51 C 23.31,12.44 25.48,14 28,14 h 4 v 6 c 0,2.77 -1.6,5.16 -3.93,6.29 C 27.15,26.75 26.11,27 25,27 23.89,27 22.85,26.75 21.93,26.29 21.23,25.95 20.6,25.5 20.05,24.95 18.78,23.68 18,21.94 18,20 Z" />
    </g>
    <path
       inkscape:connector-curvature="0"
       id="path44"
       d="m 48,48.586 -3,-3 L 40.586,50 48,57.414 59.414,46 55,41.586 Z m 0,6 L 43.414,50 45,48.414 l 3,3 7,-7 1.586,1.586 z"
       style="fill:#f48ca7;fill-opacity:1" />
    <circle
       id="circle48"
       r="1"
       cy="18"
       cx="28"
       style="fill:#656d78;fill-opacity:1" />
    <circle
       id="circle50"
       r="1"
       cy="18"
       cx="22"
       style="fill:#656d78;fill-opacity:1" />
  </g>
</svg>
