<svg id="Capa_1" enable-background="new 0 0 512 512" height="512" viewBox="0 0 512 512" width="512" xmlns="http://www.w3.org/2000/svg"><g><g><g><path d="m8.241 512h93.721v-348.568h-71.057c-17.068 0-30.905 13.836-30.905 30.905v309.421c0 4.552 3.69 8.242 8.241 8.242z" fill="#f7f6f7"/></g><path d="m71.057 163.432h30.905v348.568h-30.905z" fill="#edebed"/><g><path d="m101.963 209.79h-47.363c-4.566 0-8.262 3.713-8.241 8.279l.173 38.045c.021 4.537 3.704 8.204 8.241 8.204h47.191v-54.528z" fill="#bdd8fc"/><path d="m101.963 310.675h-47.363c-4.566 0-8.262 3.713-8.241 8.279l.173 38.045c.021 4.537 3.704 8.204 8.241 8.204h47.191v-54.528z" fill="#bdd8fc"/><path d="m71.057 209.79h30.905v54.528h-30.905z" fill="#9dc7fb"/><path d="m71.057 310.676h30.905v54.527h-30.905z" fill="#9dc7fb"/><path d="m101.963 411.114h-47.363c-4.566 0-8.262 3.713-8.241 8.279l.173 38.045c.021 4.537 3.704 8.204 8.241 8.204h47.191v-54.528z" fill="#bdd8fc"/><path d="m71.057 411.114h30.905v54.528h-30.905z" fill="#9dc7fb"/></g></g><path d="m410.037 512h-77.264l-76.773-15.453-76.774 15.453h-77.753v-389.924c0-17.069 13.837-30.905 30.905-30.905h246.754c17.069 0 30.905 13.837 30.905 30.905z" fill="#f7f6f7"/><path d="m379.132 91.171h-30.905c17.069 0 30.905 13.837 30.905 30.905v389.924h30.905v-389.924c0-17.068-13.836-30.905-30.905-30.905z" fill="#edebed"/><g><circle cx="256" cy="91.171" fill="#e5979d" r="91.171"/><path d="m256 0c-5.266 0-10.428.455-15.453 1.316 42.937 7.362 75.718 44.85 75.718 89.855s-32.781 82.493-75.718 89.855c5.025.861 10.186 1.316 15.453 1.316 50.272 0 91.171-40.899 91.171-91.171s-40.899-91.171-91.171-91.171z" fill="#e17f85"/><path d="m310.085 75.718h-35.541c-1.707 0-3.091-1.384-3.091-3.091v-35.54c0-3.414-2.767-6.181-6.181-6.181h-18.543c-3.414 0-6.181 2.767-6.181 6.181v35.541c0 1.707-1.384 3.091-3.091 3.091h-35.541c-3.414 0-6.181 2.767-6.181 6.181v18.543c0 3.414 2.767 6.181 6.181 6.181h35.541c1.707 0 3.091 1.384 3.091 3.091v35.541c0 3.414 2.767 6.181 6.181 6.181h18.543c3.414 0 6.181-2.767 6.181-6.181v-35.541c0-1.707 1.384-3.091 3.091-3.091h35.541c3.414 0 6.181-2.767 6.181-6.181v-18.544c0-3.413-2.768-6.181-6.181-6.181z" fill="#fff"/></g><path d="m179.226 360.488h153.548v151.512h-153.548z" fill="#655e67"/><path d="m301.868 360.487h30.905v151.513h-30.905z" fill="#544f56"/><g><path d="m248.274 512v-151.513c0-4.267 3.459-7.726 7.726-7.726s7.726 3.459 7.726 7.726v151.513z" fill="#f7f6f7"/></g><g><path d="m286.905 451.877c-4.267 0-7.726-3.459-7.726-7.726v-15.814c0-4.267 3.459-7.726 7.726-7.726s7.726 3.459 7.726 7.726v15.814c.001 4.267-3.458 7.726-7.726 7.726z" fill="#f7f6f7"/></g><g><path d="m225.095 451.877c-4.267 0-7.726-3.459-7.726-7.726v-15.814c0-4.267 3.459-7.726 7.726-7.726s7.726 3.459 7.726 7.726v15.814c0 4.267-3.459 7.726-7.726 7.726z" fill="#f7f6f7"/></g><path d="m224.579 283.228h-68.47c-4.566 0-8.262-3.713-8.241-8.279l.173-38.045c.021-4.537 3.704-8.204 8.241-8.204h68.297c4.552 0 8.241 3.69 8.241 8.241v38.045c.001 4.552-3.689 8.242-8.241 8.242z" fill="#bdd8fc"/><path d="m224.579 228.7h-30.905c4.552 0 8.241 3.69 8.241 8.241v38.045c0 4.551-3.69 8.241-8.241 8.241h30.905c4.552 0 8.241-3.69 8.241-8.241v-38.045c.001-4.551-3.689-8.241-8.241-8.241z" fill="#9dc7fb"/><path d="m287.421 228.7h68.222c4.566 0 8.262 3.713 8.241 8.279l-.173 38.045c-.021 4.537-3.704 8.204-8.241 8.204h-68.05c-4.552 0-8.241-3.69-8.241-8.241v-38.045c0-4.552 3.69-8.242 8.242-8.242z" fill="#bdd8fc"/><path d="m355.643 228.7h-30.905c4.566 0 8.262 3.713 8.241 8.279l-.172 38.045c-.021 4.537-3.704 8.204-8.241 8.204h30.905c4.537 0 8.221-3.668 8.241-8.204l.172-38.045c.021-4.566-3.675-8.279-8.241-8.279z" fill="#9dc7fb"/><g><g><path d="m503.759 512h-93.721v-348.568h71.057c17.069 0 30.905 13.837 30.905 30.905v309.421c0 4.552-3.69 8.242-8.241 8.242z" fill="#f7f6f7"/></g><path d="m481.095 163.432h-30.905c17.069 0 30.905 13.837 30.905 30.905v309.422c0 4.552-3.69 8.241-8.241 8.241h30.905c4.552 0 8.241-3.69 8.241-8.241v-309.422c0-17.068-13.837-30.905-30.905-30.905z" fill="#edebed"/><g fill="#bdd8fc"><path d="m410.037 209.79h47.363c4.566 0 8.262 3.713 8.241 8.279l-.172 38.045c-.021 4.537-3.704 8.204-8.241 8.204h-47.191"/><path d="m410.037 310.675h47.363c4.566 0 8.262 3.713 8.241 8.279l-.172 38.045c-.021 4.537-3.704 8.204-8.241 8.204h-47.191z"/><path d="m410.037 411.114h47.363c4.566 0 8.262 3.713 8.241 8.279l-.172 38.045c-.021 4.537-3.704 8.204-8.241 8.204h-47.191z"/></g></g><path d="m342.045 329.582h-172.09c-3.414 0-6.181 2.767-6.181 6.181v18.543c0 3.414 2.767 6.181 6.181 6.181h172.091c3.414 0 6.181-2.767 6.181-6.181v-18.543c0-3.414-2.768-6.181-6.182-6.181z" fill="#8b808e"/><path d="m342.045 329.582h-30.905c3.414 0 6.181 2.768 6.181 6.181v18.543c0 3.414-2.767 6.181-6.181 6.181h30.905c3.414 0 6.181-2.767 6.181-6.181v-18.543c.001-3.413-2.767-6.181-6.181-6.181z" fill="#766d78"/></g></svg>