<svg id="Flat" enable-background="new 0 0 124 124" height="512" viewBox="0 0 124 124" width="512" xmlns="http://www.w3.org/2000/svg"><g><g id="XMLID_1_"><path d="m118.11 116.33c-1.38-3.23-4-5.76-7.35-6.78-2.32-.71-5.3-1.52-8.92-2.33l.1-1.5c.09-1.36-.94-2.54-2.31-2.63-.06 0-.11-.01-.17-.01-1.29 0-2.37 1.01-2.46 2.32h-.01l.09-1.33c.09-1.36-.94-2.54-2.31-2.63-.05 0-.11-.01-.16-.01-1.29 0-2.38 1.01-2.47 2.32l.1-1.54c.09-1.37-.95-2.55-2.31-2.64-.06 0-.11-.01-.17-.01-1.29 0-2.38 1.01-2.46 2.32h-.01l.13-1.98c.09-1.36-.94-2.54-2.31-2.63-.05 0-.11-.01-.16-.01-4.42-4.61-9.03-7.48-12.95-9.25v-.01s31.6 1.09 35.41-3.25c3.82-4.35 5.96-54.12 2.82-58.56-3.14-4.45-26.45-5.76-26.45-5.76l-.01.01c-3.6-4.19-7.55-6.67-8.77-8.96-2.02-3.8-3-9.05-3-9.05-2.22.38-4.02 2.04-5.64 4.16 1.35-1.82 1.66-4.13 1.64-6.59-5.87 6.03-17.07 6.98-24.65 13.84-2.16 1.96-3.93 4.21-5.35 6.59 0 0-21.09 1.31-24.23 5.76-3.14 4.44-1 54.21 2.82 58.56 3.81 4.34 35.41 3.25 35.41 3.25-3.92 1.77-8.53 4.64-12.95 9.26h-.01c-.05 0-.1.01-.15.01-1.37.09-2.4 1.27-2.31 2.63l.13 1.98h-.01c-.08-1.31-1.17-2.32-2.46-2.32-.06 0-.11.01-.17.01-1.36.09-2.4 1.27-2.31 2.64l.1 1.54c-.09-1.31-1.18-2.32-2.47-2.32-.05 0-.11.01-.16.01-1.37.09-2.4 1.27-2.31 2.63l.09 1.33h-.01c-.09-1.31-1.17-2.32-2.46-2.32-.06 0-.11.01-.17.01-1.37.09-2.4 1.27-2.31 2.63l.1 1.5c-3.62.81-6.6 1.62-8.92 2.33-3.35 1.02-5.97 3.55-7.35 6.78-1.27 2.98-3.14 5.11-5.89 7.67h94.19 29.81c-2.75-2.56-4.62-4.69-5.89-7.67z" fill="#fec4b9"/><g><path d="m86.55 49.58c.3.06.6.14.89.25 3.03 1.21 4.39 5.16 3.04 8.83-1.17 3.18-3.98 5.11-6.68 4.78 1.27-3.68 2.23-8.56 2.75-13.86z" fill="#f7b6ad"/><path d="m40.2 63.44c-2.7.33-5.51-1.6-6.68-4.78-1.35-3.67.01-7.62 3.04-8.83.29-.11.59-.19.89-.25.52 5.3 1.48 10.18 2.75 13.86z" fill="#f7b6ad"/><path d="m33.48 37.85c.41 6.25 3.97 11.73 3.97 11.73-.3.06-.6.14-.89.25-3.03 1.21-4.39 5.16-3.04 8.83 1.17 3.18 3.98 5.11 6.68 4.78.55 1.59 1.15 2.96 1.8 4.04 2.31 3.85 7.58 8.89 14 11v7.99c-1.21.38-2.56.88-4 1.53 0 0-31.6 1.09-35.41-3.25-3.82-4.35-5.96-54.12-2.82-58.56 3.14-4.45 24.23-5.76 24.23-5.76-3.53 5.94-4.83 12.65-4.52 17.42z" fill="#c3ddda"/><path d="m86.55 49.58s5.46-8.74 3.02-18.22c-1.2-4.67-3.42-8.16-5.8-10.92l.01-.01s23.31 1.31 26.45 5.76c3.14 4.44 1 54.21-2.82 58.56-3.81 4.34-35.41 3.25-35.41 3.25v.01c-1.44-.66-2.79-1.16-4-1.54v-7.99c1.77-.58 3.44-1.38 4.99-2.32l10.99 7.85c1.93 1.38 4.68.84 6.14-1.21l1.29-1.8c1.46-2.05 1.08-4.82-.85-6.2l-9.09-6.49c.19-.28.37-.56.53-.83.65-1.08 1.25-2.45 1.8-4.04 2.7.33 5.51-1.6 6.68-4.78 1.35-3.67-.01-7.62-3.04-8.83-.29-.11-.59-.19-.89-.25z" fill="#c3ddda"/><path d="m118.11 116.33c-1.38-3.23-4-5.76-7.35-6.78-2.32-.71-5.3-1.52-8.92-2.33l-.08 1.28c-.09 1.31-1.18 2.32-2.47 2.32-.06 0-.11-.01-.17-.01-1.36-.09-2.4-1.26-2.31-2.63-.07 1.07-.81 1.94-1.78 2.22-.22.07-.45.1-.68.1-.06 0-.11-.01-.17-.01-1.37-.09-2.4-1.27-2.31-2.63-.08 1.16-.94 2.09-2.04 2.28-.14.03-.28.04-.43.04-.05 0-.11-.01-.16-.01-1.37-.09-2.4-1.27-2.31-2.64-.08 1.11-.88 2.01-1.91 2.25-.23.06-.48.08-.73.06-1.36-.09-2.4-1.27-2.31-2.63l.2-3.11c-6.01-.6-12.75-.98-20.18-.98s-14.17.38-20.18.98l.2 3.11c.09 1.36-.95 2.54-2.31 2.63-.27.02-.54-.01-.79-.07-1-.26-1.77-1.15-1.85-2.24.09 1.37-.94 2.55-2.31 2.64-.05 0-.11.01-.16.01-.35 0-.68-.07-.99-.21-.82-.36-1.42-1.16-1.48-2.11.09 1.36-.94 2.54-2.31 2.63-.06 0-.11.01-.17.01-1.29 0-2.37-1.01-2.46-2.32.09 1.37-.95 2.54-2.31 2.63-.06 0-.11.01-.17.01-1.29 0-2.38-1.01-2.47-2.32l-.08-1.28c-3.62.81-6.6 1.62-8.92 2.33-3.35 1.02-5.97 3.55-7.35 6.78-1.27 2.98-3.14 5.11-5.89 7.67h94.19 29.81c-2.75-2.56-4.62-4.69-5.89-7.67z" fill="#f48ca7"/><path d="m56 86.47s.15 6.97 6 6.97 6-6.97 6-6.97c1.21.38 2.56.88 4 1.54 3.92 1.77 8.53 4.64 12.95 9.25-1.29 0-2.38 1.01-2.47 2.32l-.3 4.52c-6.01-.6-12.75-.98-20.18-.98s-14.17.38-20.18.98l-.3-4.52c-.09-1.31-1.18-2.32-2.47-2.32 4.42-4.62 9.03-7.49 12.95-9.26 1.44-.65 2.79-1.15 4-1.53z" fill="#ffc05a"/><path d="m94.18 110.49c-1.37-.09-2.4-1.27-2.31-2.63l.27-4.11c.09-1.31 1.18-2.32 2.47-2.32.05 0 .11.01.16.01 1.37.09 2.4 1.27 2.31 2.63l-.09 1.33-.18 2.78c-.07 1.07-.81 1.94-1.78 2.22-.22.07-.45.1-.68.1-.06 0-.11-.01-.17-.01z" fill="#f7b6ad"/><path d="m85.02 109.78c-.23.06-.48.08-.73.06-1.36-.09-2.4-1.27-2.31-2.63l.2-3.11.3-4.52c.09-1.31 1.18-2.32 2.47-2.32.05 0 .11.01.16.01 1.37.09 2.4 1.27 2.31 2.63l-.13 1.98-.36 5.65c-.08 1.11-.88 2.01-1.91 2.25z" fill="#f7b6ad"/><g fill="#fec4b9"><path d="m99.63 103.09c1.37.09 2.4 1.27 2.31 2.63l-.1 1.5-.08 1.28c-.09 1.31-1.18 2.32-2.47 2.32-.06 0-.11-.01-.17-.01-1.36-.09-2.4-1.26-2.31-2.63l.18-2.78h.01c.09-1.31 1.17-2.32 2.46-2.32.06 0 .11.01.17.01z"/><path d="m89.24 110.17c-1.37-.09-2.4-1.27-2.31-2.64l.36-5.65h.01c.08-1.31 1.17-2.32 2.46-2.32.06 0 .11.01.17.01 1.36.09 2.4 1.27 2.31 2.64l-.1 1.54-.27 4.11c-.08 1.16-.94 2.09-2.04 2.28-.14.03-.28.04-.43.04-.05 0-.11-.01-.16-.01z"/><path d="m37.07 107.53c.09 1.37-.94 2.55-2.31 2.64-.05 0-.11.01-.16.01-.35 0-.68-.07-.99-.21-.82-.36-1.42-1.16-1.48-2.11l-.27-4.11-.1-1.54c-.09-1.37.95-2.55 2.31-2.64.06 0 .11-.01.17-.01 1.29 0 2.38 1.01 2.46 2.32h.01z"/></g><path d="m39.04 97.26h.01c1.29 0 2.38 1.01 2.47 2.32l.3 4.52.2 3.11c.09 1.36-.95 2.54-2.31 2.63-.27.02-.54-.01-.79-.07-1-.26-1.77-1.15-1.85-2.24l-.36-5.65-.13-1.98c-.09-1.36.94-2.54 2.31-2.63.05 0 .1-.01.15-.01z" fill="#f7b6ad"/><path d="m32.13 107.86c.09 1.36-.94 2.54-2.31 2.63-.06 0-.11.01-.17.01-1.29 0-2.37-1.01-2.46-2.32l-.18-2.78-.09-1.33c-.09-1.36.94-2.54 2.31-2.63.05 0 .11-.01.16-.01 1.29 0 2.38 1.01 2.47 2.32z" fill="#f7b6ad"/><path d="m27.19 108.18c.09 1.37-.95 2.54-2.31 2.63-.06 0-.11.01-.17.01-1.29 0-2.38-1.01-2.47-2.32l-.08-1.28-.1-1.5c-.09-1.36.94-2.54 2.31-2.63.06 0 .11-.01.17-.01 1.29 0 2.37 1.01 2.46 2.32h.01z" fill="#fec4b9"/><path d="m87.32 76.86c.94.67 1.16 1.98.49 2.92s-1.98 1.16-2.92.48c-.94-.67-1.16-1.98-.49-2.92s1.98-1.16 2.92-.48z" fill="#e15c63"/><path d="m80.95 72.69c.79.57.98 1.68.41 2.48s-1.68.98-2.48.41l-6.5-4.64c-.8-.57-.98-1.68-.41-2.48.35-.48.89-.74 1.45-.74.36 0 .72.11 1.03.33z" fill="#e15c63"/><path d="m90.56 74.8c1.93 1.38 2.31 4.15.85 6.2l-1.29 1.8c-1.46 2.05-4.21 2.59-6.14 1.21l-10.99-7.85-5.33-3.8c-1.92-1.38-2.6-3.87-1.86-6.11l-5.07-3.62c-.44-.32-.68-.83-.68-1.35 0-.37.12-.74.35-1.07.57-.79 1.64-1.01 2.39-.47l5.07 3.62c1.89-1.43 4.46-1.59 6.38-.22l7.23 5.17zm-2.75 4.98c.67-.94.45-2.25-.49-2.92-.94-.68-2.25-.46-2.92.48s-.45 2.25.49 2.92c.94.68 2.25.46 2.92-.48zm-6.45-4.61c.57-.8.38-1.91-.41-2.48l-6.5-4.64c-.31-.22-.67-.33-1.03-.33-.56 0-1.1.26-1.45.74-.57.8-.39 1.91.41 2.48l6.5 4.64c.8.57 1.91.39 2.48-.41z" fill="#e7f2f1"/><path d="m89.57 31.36c2.44 9.48-3.02 18.22-3.02 18.22-2.83-2.22-4.33-5.18-5.32-8.4v-.01c1.73-.49 3.03-2.89 2.45-5.1.42-.38.69-.93.69-1.57v-5.96c0-1.84-1.19-3.42-2.86-3.82-2.12-.51-4.24-.93-6.36-1.26v-.01c-2.47-2.72-6.42-4.47-13.15-4.47s-10.68 1.75-13.15 4.47v.01c-2.12.33-4.24.75-6.36 1.26-1.67.4-2.86 1.98-2.86 3.82v8.86c0 1.99 1.38 3.6 3.12 3.85-1 3.19-2.5 6.12-5.3 8.33 0 0-3.56-5.48-3.97-11.73-.31-4.77.99-11.48 4.52-17.42 1.42-2.38 3.19-4.63 5.35-6.59 7.58-6.86 18.78-7.81 24.65-13.84.02 2.46-.29 4.77-1.64 6.59 1.62-2.12 3.42-3.78 5.64-4.16 0 0 .98 5.25 3 9.05 1.22 2.29 5.17 4.77 8.77 8.96 2.38 2.76 4.6 6.25 5.8 10.92z" fill="#ad6a6a"/><circle cx="72" cy="49.48" fill="#543927" r="2"/><circle cx="52" cy="49.48" fill="#543927" r="2"/><g fill="#ad6a6a"><path d="m53.73 39.045c-.446 0-.824.295-.953.7-.763 2.153-2.254 3.312-4.556 3.54-.55.055-.951.544-.896 1.094.051.516.486.901.994.901.033 0 .066-.001.1-.005 3.077-.306 5.24-1.998 6.255-4.895.037-.106.056-.228.056-.34 0-.552-.448-.995-1-.995z"/><path d="m75.779 43.285c-2.288-.227-3.774-1.373-4.542-3.5-.113-.427-.503-.739-.967-.739-.552 0-1 .453-1 1.005 0 .113.019.225.056.331 1.015 2.896 3.178 4.589 6.255 4.895.033.003.067.005.1.005.508 0 .943-.385.994-.901.055-.552-.346-1.042-.896-1.096z"/></g><path d="m42.75 41.25c-1.74-.25-3.12-1.86-3.12-3.85v-8.86c0-1.84 1.19-3.42 2.86-3.82 2.12-.51 4.24-.93 6.36-1.26 8.77-1.43 17.53-1.43 26.3 0 2.12.33 4.24.75 6.36 1.26 1.67.4 2.86 1.98 2.86 3.82v5.96c0 .64-.27 1.19-.69 1.57.58 2.21-.72 4.61-2.45 5.1v.01c-.33.09-.67.12-1.02.06-3.31-.55-6.62-.95-9.94-1.19-5.51-.42-11.03-.42-16.54 0-3.32.24-6.63.64-9.94 1.19-.36.06-.71.06-1.04.01z" fill="#20bab6"/></g><g id="XMLID_31_"><g><path d="m68 78.48v4.66c-7.25 1.49-12-1.68-12-1.68v-2.98c1.91.63 3.93 1 6 1s4.08-.37 6-1z" fill="#f7b6ad"/><g fill="#b8d3cf"><path d="m93.63 49.58s3.56 4 .85 11.52c-2.72 7.51-10.11 9.28-10.11 9.28l-2.9-2.07c.19-.28.37-.56.53-.83.65-1.08 1.25-2.45 1.8-4.04 2.7.33 5.51-1.6 6.68-4.78 1.35-3.67-.01-7.62-3.04-8.83-.29-.11-.59-.19-.89-.25 0 0 5.46-8.74 3.02-18.22-1.2-4.67-3.42-8.16-5.8-10.92l.01-.01s2.72.15 6.42.53c0 0 7.85 11.86 3.43 28.62z"/><path d="m92.3 78.56s3.19 1.17.25 5.56c-1.52 2.26-3.49 3.09-5.45 3.18-3.91.19-7.75-2.53-7.75-2.53l-9.6-6.95c1.13-.47 2.21-1.04 3.24-1.66l10.99 7.85c1.93 1.38 4.68.84 6.14-1.21l1.29-1.8c.54-.75.82-1.6.88-2.44z"/></g></g><g><path d="m81.947 35.596c-3.461-.958-10.654-2.566-19.947-2.566-13.499 0-19.21 3.013-19.447 3.141-.484.262-.664.867-.403 1.352.181.335.526.526.882.526.159 0 .321-.038.471-.118.055-.03 5.587-2.901 18.497-2.901 9.057 0 16.05 1.563 19.413 2.494.533.145 1.083-.165 1.231-.697s-.165-1.083-.697-1.231z" fill="#1ea8a1"/><g><g fill="#e15c63"><path d="m44.358 53.941c-.326-.446-.95-.544-1.397-.219-.446.325-.544.951-.219 1.397l3.01 4.13c.196.269.5.411.809.411.204 0 .41-.063.588-.192.446-.325.544-.951.219-1.397z"/><path d="m49.128 53.941c-.325-.446-.95-.544-1.397-.219-.446.325-.544.951-.219 1.397l3.01 4.13c.196.269.5.411.809.411.204 0 .41-.063.588-.192.446-.325.544-.951.219-1.397z"/><path d="m53.898 53.941c-.325-.446-.95-.544-1.397-.219-.446.325-.544.951-.219 1.397l3.01 4.13c.196.269.5.411.809.411.204 0 .41-.063.588-.192.446-.325.544-.951.219-1.397z"/><path d="m68.768 53.941c-.325-.446-.95-.544-1.397-.219-.446.325-.544.951-.219 1.397l3.01 4.13c.196.269.5.411.809.411.204 0 .41-.063.588-.192.446-.325.544-.951.219-1.397z"/><path d="m73.538 53.941c-.325-.446-.951-.544-1.397-.219s-.544.951-.219 1.397l3.01 4.13c.196.269.5.411.809.411.204 0 .41-.063.588-.192.446-.325.544-.951.219-1.397z"/><path d="m78.308 53.941c-.325-.446-.95-.544-1.397-.219-.446.325-.544.951-.219 1.397l3.01 4.13c.196.269.5.411.809.411.204 0 .41-.063.588-.192.446-.325.544-.951.219-1.397z"/></g><path d="m46.308 76.432c-3.745-2.039-6.519-5.055-8.243-8.965-.222-.506-.813-.732-1.318-.512-.505.223-.734.813-.512 1.318 1.907 4.325 4.975 7.66 9.117 9.915.152.083.315.122.477.122.354 0 .698-.189.879-.522.265-.485.085-1.092-.4-1.356z" fill="#e7f2f1"/><path d="m41.666 78.612c-2.12-1.211-3.894-3.143-5.273-5.741-.259-.488-.866-.674-1.352-.415-.488.259-.673.864-.415 1.352 1.559 2.938 3.594 5.138 6.047 6.54.157.089.327.132.495.132.347 0 .685-.181.869-.504.275-.479.109-1.09-.371-1.364z" fill="#e7f2f1"/><path d="m93.49 33.802c-.551.039-.966.517-.927 1.068.326 4.62-.513 9.063-2.495 13.208-.238.498-.027 1.095.471 1.333.139.066.286.098.431.098.373 0 .731-.209.903-.569 2.133-4.461 3.036-9.243 2.685-14.211-.039-.551-.519-.959-1.068-.927z" fill="#e7f2f1"/><path d="m98.259 37.072c-.027-.552-.488-.979-1.047-.951-.551.026-.978.495-.951 1.047.143 2.998-.338 6.053-1.431 9.083-.188.52.082 1.093.601 1.28.112.041.227.06.339.06.409 0 .793-.254.94-.661 1.184-3.279 1.705-6.595 1.549-9.858z" fill="#e7f2f1"/></g><g fill="#ea728c"><path d="m33.822 111.206c-.55.053-.952.542-.898 1.092.216 2.227.121 4.253-.292 6.195-.115.54.23 1.071.771 1.186.07.015.14.022.208.022.462 0 .877-.322.977-.792.449-2.114.559-4.403.326-6.803-.053-.551-.541-.953-1.092-.9z"/><path d="m39.049 110.2c-.55.049-.957.535-.907 1.085.092 1.033.025 2.084-.199 3.125-.117.54.227 1.072.767 1.188.071.015.142.022.212.022.461 0 .875-.32.977-.789.267-1.237.347-2.49.236-3.724-.051-.55-.54-.952-1.086-.907z"/><path d="m86.044 111.458c.087-.545-.284-1.058-.829-1.146-.548-.09-1.058.283-1.146.829-.515 3.215-.472 4.98.201 8.212.098.472.514.796.978.796.067 0 .136-.007.205-.021.541-.113.888-.642.775-1.183-.628-3.018-.664-4.488-.184-7.487z"/><path d="m90.862 111.249c-.028-.552-.506-.968-1.05-.947-.552.028-.976.499-.947 1.05.203 3.945 1.318 7.743 3.315 11.287.184.326.522.509.872.509.166 0 .334-.042.49-.129.481-.271.651-.881.38-1.362-1.843-3.272-2.873-6.774-3.06-10.408z"/><path d="m100.27 119.246c-.433-.437-.839-.9-1.208-1.377-1.354-1.753-2.293-3.832-2.793-6.178-.115-.54-.646-.887-1.187-.77-.54.115-.885.646-.77 1.187.563 2.642 1.628 4.991 3.167 6.983.418.543.88 1.069 1.372 1.564.195.197.452.295.709.295.255 0 .509-.097.705-.291.392-.388.394-1.021.005-1.413z"/></g></g></g></g></g></svg>